<?xml version="1.0" encoding="UTF-8"?> <svg xmlns="http://www.w3.org/2000/svg" id="Слой_1" data-name="Слой 1" viewBox="0 0 101.67 101.67"> <defs> <style> .cls-1, .cls-3 { fill: #9fb381; } .cls-1 { stroke: #9fb381; stroke-miterlimit: 10; stroke-width: 0.28px; } .cls-2 { opacity: 0.7; } </style> </defs> <title>пиктограммы</title> <path class="cls-1" d="M77.27,31.44a1,1,0,0,0-1-1h0l-51,.1a1.07,1.07,0,0,0-.69.29,1,1,0,0,0-.29.69l.08,36.7a1,1,0,0,0,1,1h14l-.75,1a1,1,0,0,0,.32,1.37,1,1,0,0,0,.68.15L44,70.81l.8,4.13a1,1,0,0,0,.81.79h.19a1,1,0,0,0,.86-.52l3.27-6h2.41l3.2,6.12a1,1,0,0,0,.87.52h.13a1,1,0,0,0,.83-.77L58.19,71l4.37,1a1,1,0,0,0,1.2-.74h0v-.1a.92.92,0,0,0-.13-.67l-.87-1.28H76.37a1,1,0,0,0,1-1Zm-31,40.41-.42-2.37a1,1,0,0,0-1.16-.77l-2.91.63L42,69a1.2,1.2,0,0,0,.32-.45l3.43-4.79a8.5,8.5,0,0,0,3.86,1.9l-1,1.87a1.12,1.12,0,0,0-.25.47ZM57.78,57.41a6.49,6.49,0,0,1-6.47,6.43h0a6.5,6.5,0,0,1,0-13h0a6.49,6.49,0,0,1,6.43,6.52Zm-6.71,9.8.17-.31.16.31Zm6.66,1.59a1,1,0,0,0-.75.13,1.06,1.06,0,0,0-.43.63l-.48,2.36-3.29-6.29a8.36,8.36,0,0,0,3.93-1.85l3.89,5.66Zm3.7-1.62L58.1,62.34a8.44,8.44,0,0,0-6.73-13.42h-.06a8.4,8.4,0,0,0-6.87,13.32l-3.53,5H26.38l-.06-34.73,49-.1.09,34.74Z"></path> <path class="cls-1" d="M60.19,38.26l-18.7-.13h0a1,1,0,0,0,0,2l18.7.14h0a1,1,0,0,0,0-2Z"></path> <path class="cls-1" d="M60.19,42.69l-18.7-.14h0a1,1,0,1,0,0,2l18.7.13h0a1,1,0,0,0,0-2Z"></path> <g class="cls-2"> <path class="cls-3" d="M50.84,101.67a50.84,50.84,0,1,1,50.83-50.84h0A50.87,50.87,0,0,1,50.84,101.67ZM50.84,2A48.84,48.84,0,1,0,99.67,50.85h0A48.88,48.88,0,0,0,50.84,2Z"></path> </g> </svg> 