<?xml version="1.0" encoding="UTF-8"?> <svg xmlns="http://www.w3.org/2000/svg" id="Слой_1" data-name="Слой 1" viewBox="0 0 101.67 101.67"> <defs> <style> .cls-1 { opacity: 0.7; } .cls-2 { fill: #9fb381; } </style> </defs> <title>Монтажная область 1 копия 4</title> <g id="Слой_1-2" data-name="Слой 1-2"> <g class="cls-1"> <path class="cls-2" d="M50.84,101.67a50.84,50.84,0,1,1,50.83-50.84h0A50.87,50.87,0,0,1,50.84,101.67ZM50.84,2A48.84,48.84,0,1,0,99.67,50.85h0A48.88,48.88,0,0,0,50.84,2Z"></path> </g> <path class="cls-2" d="M48.94,63.26v-8h-6.7V30.18h31.1V55.26H57Zm-4.7-10h6.7v5.2l5.29-5.2H71.34V32.17H44.24Z"></path> <polygon class="cls-2" points="44.34 76.59 36.2 67.97 28.34 67.97 28.34 42.88 43.23 42.88 43.23 44.88 30.34 44.88 30.34 65.97 37.06 65.97 42.34 71.56 42.34 65.97 58.84 65.97 58.84 54.58 60.84 54.58 60.84 67.97 44.34 67.97 44.34 76.59"></polygon> <path class="cls-2" d="M50.53,40a2.71,2.71,0,0,1,0-5.41h0a2.71,2.71,0,1,1,0,5.41Zm0-3.41h0a.86.86,0,0,0-.5.21.72.72,0,0,0,0,1h0a.63.63,0,0,0,.5.2.79.79,0,0,0,.5-.2.7.7,0,0,0,.2-.5.72.72,0,0,0-.7-.7Z"></path> <path class="cls-2" d="M58.34,40a2.71,2.71,0,0,1,0-5.41h0a2.71,2.71,0,0,1,0,5.41Zm0-3.41a.7.7,0,0,0-.7.71h0a.7.7,0,0,0,.7.7h0a.64.64,0,0,0,.5-.21.7.7,0,0,0,.2-.49.71.71,0,0,0-.21-.5.65.65,0,0,0-.49-.23Z"></path> </g> </svg> 