<?xml version="1.0" encoding="UTF-8"?> <svg xmlns="http://www.w3.org/2000/svg" id="Слой_1" data-name="Слой 1" viewBox="0 0 101.67 101.67"> <defs> <style> .cls-1 { opacity: 0.7; } .cls-2, .cls-3 { fill: #9fb381; } .cls-3 { stroke: #9fb381; stroke-miterlimit: 10; stroke-width: 0.85px; } </style> </defs> <title>пиктограммы</title> <g class="cls-1"> <path class="cls-2" d="M50.84,101.67a50.84,50.84,0,1,1,50.83-50.84h0A50.87,50.87,0,0,1,50.84,101.67ZM50.84,2A48.84,48.84,0,1,0,99.67,50.85h0A48.88,48.88,0,0,0,50.84,2Z"></path> </g> <g> <path class="cls-3" d="M59.15,75H42.52a.62.62,0,1,1,0-1.23H59.15a.62.62,0,1,1,0,1.23Z"></path> <path class="cls-3" d="M50.83,75a.62.62,0,0,1-.61-.61V63.74a.62.62,0,0,1,1.23,0V74.43A.62.62,0,0,1,50.83,75Z"></path> <path class="cls-3" d="M50.92,58.88h-.17A8.86,8.86,0,0,1,41.9,50V35.48a8.86,8.86,0,0,1,8.85-8.85h.17a8.86,8.86,0,0,1,8.85,8.85V50A8.86,8.86,0,0,1,50.92,58.88Zm-.17-31a7.63,7.63,0,0,0-7.62,7.62V50a7.63,7.63,0,0,0,7.62,7.62h.17A7.63,7.63,0,0,0,58.54,50V35.48a7.63,7.63,0,0,0-7.62-7.62Z"></path> <path class="cls-3" d="M50.92,63.44h-.17A13.4,13.4,0,0,1,37.35,50a.61.61,0,0,1,1.22,0A12.19,12.19,0,0,0,50.75,62.22h.17A12.19,12.19,0,0,0,63.1,50a.61.61,0,0,1,1.22,0,13.4,13.4,0,0,1-13.4,13.4Z"></path> <path class="cls-3" d="M50.92,58.88h-.17A8.86,8.86,0,0,1,41.9,50V35.48a8.86,8.86,0,0,1,8.85-8.85h.17a8.86,8.86,0,0,1,8.85,8.85V50A8.86,8.86,0,0,1,50.92,58.88Zm-.17-31a7.63,7.63,0,0,0-7.62,7.62V50a7.63,7.63,0,0,0,7.62,7.62h.17A7.63,7.63,0,0,0,58.54,50V35.48a7.63,7.63,0,0,0-7.62-7.62Z"></path> <path class="cls-3" d="M56,37.8a.61.61,0,0,1-.61-.61,5.73,5.73,0,0,0-5.72-5.72.61.61,0,0,1,0-1.22,6.94,6.94,0,0,1,6.94,6.94A.61.61,0,0,1,56,37.8Z"></path> </g> </svg> 