<?xml version="1.0" encoding="UTF-8"?> <svg xmlns="http://www.w3.org/2000/svg" id="Слой_1" data-name="Слой 1" viewBox="0 0 101.67 101.67"> <defs> <style> .cls-1 { opacity: 0.7; } .cls-2, .cls-3 { fill: #9fb381; } .cls-3 { stroke: #9fb381; stroke-miterlimit: 10; stroke-width: 0.57px; } </style> </defs> <title>пиктограммы</title> <g class="cls-1"> <path class="cls-2" d="M50.84,101.67a50.84,50.84,0,1,1,50.83-50.84h0A50.87,50.87,0,0,1,50.84,101.67ZM50.84,2A48.84,48.84,0,1,0,99.67,50.85h0A48.88,48.88,0,0,0,50.84,2Z"></path> </g> <path class="cls-3" d="M35.84,32.87l6,2.66a10.57,10.57,0,1,0,17.56.09l5.29-2.5v10l-1.61,3.46a.71.71,0,0,0,.06.73.9.9,0,0,0,.67.36h3a.61.61,0,0,0,.62-.36.74.74,0,0,0,.06-.73l-1.35-3.42V32.42c0-.42,0-.73-.77-1C65.2,31.42,50.94,25,50.94,25a.58.58,0,0,0-.62,0L35.84,31.48a.86.86,0,0,0-.46.73A.74.74,0,0,0,35.84,32.87Zm23.72,8.61a9,9,0,0,1-18.06,0,9.19,9.19,0,0,1,1.71-5.29l7.06,3.16a.83.83,0,0,0,.62,0l7-3.11A8.68,8.68,0,0,1,59.56,41.48ZM65,46.15l.37-.78.31.78ZM50.62,26.55l12.62,5.61-12.62,5.6L38,32.16Z"></path> <path class="cls-3" d="M50.84,53.9A18.4,18.4,0,0,0,32.46,72.26a.79.79,0,0,0,.78.77H68.42a.77.77,0,0,0,.78-.77A18.38,18.38,0,0,0,50.84,53.9ZM34.08,71.48a16.8,16.8,0,0,1,33.57,0Z"></path> </svg> 